<svg xmlns="http://www.w3.org/2000/svg" viewBox="0 0 44.24 44.24"><defs><style>.cls-1,.cls-2{fill:#f5f1f4;}.cls-2{fill-rule:evenodd;}</style></defs><title>share_facebook</title><g id="Layer_2" data-name="Layer 2"><g id="Layer_1-2" data-name="Layer 1"><path class="cls-1" d="M22.12,0A22.12,22.12,0,1,1,6.48,6.48,22,22,0,0,1,22.12,0ZM36.55,7.7a20.44,20.44,0,1,0,6,14.42,20.41,20.41,0,0,0-6-14.42Z"/><path class="cls-2" d="M23.81,17.6V15.79a1,1,0,0,1,1-1.08h2.54V10.84H23.85c-3.89,0-4.76,2.86-4.76,4.73v2H16.84v4.52h2.28V33.41h4.52V22.12H27l.15-1.78.27-2.74Z"/></g></g></svg>