<svg xmlns="http://www.w3.org/2000/svg" viewBox="0 0 44.24 44.24"><defs><style>.cls-1,.cls-2{fill:#f5f1f4;}.cls-2{fill-rule:evenodd;}</style></defs><title>share_twitter</title><g id="Layer_2" data-name="Layer 2"><g id="Layer_1-2" data-name="Layer 1"><path class="cls-1" d="M22.12,0A22.12,22.12,0,1,1,6.48,6.48,22,22,0,0,1,22.12,0ZM36.55,7.7a20.44,20.44,0,1,0,6,14.42,20.41,20.41,0,0,0-6-14.42Z"/><path class="cls-2" d="M33.18,15.69a9.94,9.94,0,0,1-2.66.73,4.61,4.61,0,0,0,2.05-2.54A9.48,9.48,0,0,1,29.62,15a4.65,4.65,0,0,0-8,3.11,5,5,0,0,0,.14,1,13.15,13.15,0,0,1-9.55-4.77,4.49,4.49,0,0,0,1.42,6.09,4.53,4.53,0,0,1-2.1-.56V20a4.24,4.24,0,0,0,.32,1.64,4.65,4.65,0,0,0,3.41,2.82A4.62,4.62,0,0,1,14,24.6a4.22,4.22,0,0,1-.87-.1,4.67,4.67,0,0,0,4.33,3.18,9.37,9.37,0,0,1-5.75,1.95,10.32,10.32,0,0,1-1.11-.06,13.31,13.31,0,0,0,7.1,2.05A12.88,12.88,0,0,0,30.57,21.4a12.47,12.47,0,0,0,.31-2.75v-.59a9.59,9.59,0,0,0,2.3-2.37Z"/></g></g></svg>